<svg t="1700911208355" class="icon" viewBox="0 0 1196 1024" version="1.1" xmlns="http://www.w3.org/2000/svg" p-id="1582" width="200" height="200"><path d="M683.634773 826.026667a493.653333 493.653333 0 0 1-88.362666 23.68c-83.2 14.208-165.888 11.306667-247.466667-10.752-6.272-1.706667-10.965333 0.128-16.170667 2.730666-45.013333 22.613333-90.112 45.098667-134.997333 67.84-14.378667 7.338667-28.245333 8.021333-41.258667-1.706666-13.568-10.154667-17.365333-23.978667-14.762666-40.96 5.845333-38.101333 10.282667-76.373333 15.530666-114.56 0.853333-6.656-3.84-9.386667-7.552-12.928-39.68-37.717333-75.264-78.848-101.333333-127.274667-82.346667-153.173333-55.168-333.141333 68.992-459.093333C189.46944 78.762667 278.130773 32.682667 379.93344 12.288c131.541333-26.368 257.962667-10.922667 376.917333 52.48 92.117333 49.066667 162.346667 119.808 204.074667 216.576 23.68 54.954667 33.28 112.554667 29.269333 174.506667-12.928-10.24-25.472-18.901333-41.130666-20.565334-15.829333-2.133333-31.957333 0.853333-45.952 8.618667a296.106667 296.106667 0 0 0-12.373334-98.133333c-24.149333-78.677333-72.96-138.752-140.202666-184.533334-70.4-47.872-148.821333-71.509333-233.429334-75.093333-106.154667-4.522667-203.861333 21.376-289.792 84.906667C146.84544 230.698667 96.242773 309.333333 88.776107 411.136c-5.76 78.848 19.370667 148.821333 67.797333 210.773333a344.32 344.32 0 0 0 67.84 66.261334c16.512 12.202667 21.76 27.221333 16.298667 46.848a3086.72 3086.72 0 0 0-18.005334 68.266666c-1.066667 4.266667-3.2 9.130667 0.853334 12.629334 4.565333 4.053333 8.277333-0.682667 11.861333-2.730667 27.008-15.701333 54.186667-31.317333 80.853333-47.573333 16.213333-9.941333 32.554667-12.629333 51.2-7.338667 84.906667 24.106667 174.848 23.808 259.498667-0.938667 8.234667-2.474667 11.776-3.2 12.202667 7.893334 1.024 28.672 17.621333 47.573333 44.458666 60.8z" fill="#0081EF" p-id="1583"></path><path d="M737.010773 803.2c-35.797333-0.426667-64.469333-27.861333-67.925333-64.938667-2.944-31.573333 21.973333-65.024 54.741333-70.485333a215.893333 215.893333 0 0 0 124.245334-65.877333c6.016-6.314667 12.8-7.296 19.754666-3.712 6.912 3.626667 9.557333 10.581333 7.850667 18.688a17.493333 17.493333 0 0 1-6.058667 8.832 216.874667 216.874667 0 0 0-64.768 123.818666c-5.12 30.592-35.968 54.058667-67.84 53.674667z" fill="#FECB00" p-id="1584"></path><path d="M1195.592107 733.994667c0 34.858667-24.106667 63.914667-57.045334 68.949333-46.72 7.125333-85.76 28.629333-118.613333 62.08-4.693333 4.864-9.386667 9.386667-16.64 8.448a15.616 15.616 0 0 1-13.653333-10.581333c-2.474667-7.082667 0-12.8 4.864-17.749334 11.946667-11.605333 22.784-24.32 32.298666-37.973333 16.341333-24.405333 27.349333-51.882667 32.426667-80.768 5.418667-31.488 27.690667-54.314667 56.96-59.136 29.824-4.864 57.642667 9.514667 72.874667 37.546667 4.693333 9.002667 6.954667 19.072 6.528 29.184z" fill="#0082EF" p-id="1585"></path><path d="M863.944107 540.373333c0.298667-35.285333 29.269333-66.389333 62.165333-68.693333 36.693333-2.389333 68.48 21.333333 74.112 56.149333 7.68 47.274667 29.098667 87.168 63.402667 120.405334 9.258667 8.96 10.368 17.877333 3.242666 25.301333-7.168 7.466667-15.957333 7.338667-25.344-2.304-33.792-34.133333-73.770667-55.978667-121.557333-63.872-20.522667-3.370667-36.138667-15.616-46.805333-33.792-6.442667-10.794667-8.192-22.698667-9.216-33.194667z" fill="#2DBB00" p-id="1586"></path><path d="M1000.562773 928.938667c0 34.858667-26.026667 65.365333-58.538666 68.48-39.552 3.84-71.125333-18.816-77.568-57.514667-7.808-47.061333-29.44-86.314667-63.402667-119.125333-6.272-6.058667-8.96-12.8-5.461333-20.693334 2.901333-6.528 8.874667-9.088 16-8.96 4.906667 0 8.32 2.986667 11.392 6.272 33.962667 35.584 75.434667 56.448 123.733333 65.28 31.872 5.802667 53.76 34.346667 53.845333 66.261334z" fill="#F96500" p-id="1587"></path></svg>